<svg width="16" height="15" viewBox="0 0 16 15" fill="none" xmlns="http://www.w3.org/2000/svg">
<path opacity="0.4" d="M2.1125 14.187L3.1025 12.858C2.28575 12.1936 1.63051 11.371 1.18141 10.4464C0.732313 9.52177 0.4999 8.51678 0.5 7.49988C0.5 5.62511 1.29018 3.82714 2.6967 2.50148C4.10322 1.17582 6.01088 0.431075 8 0.431075C9.335 0.431075 10.58 0.75624 11.6675 1.32881L12.6575 -0.00012207L13.8875 0.81279L12.8975 2.14173C14.4875 3.44238 15.5 5.35803 15.5 7.49988C15.5 9.37464 14.7098 11.1726 13.3033 12.4983C11.8968 13.8239 9.98912 14.5687 8 14.5687C6.665 14.5687 5.42 14.2435 4.3325 13.6709L3.3425 14.9999L2.1125 14.187ZM8 1.84484C6.4087 1.84484 4.88258 2.44063 3.75736 3.50116C2.63214 4.56169 2 6.00007 2 7.49988C2 9.16105 2.75 10.6526 3.9725 11.6917L10.7975 2.49517C9.93575 2.06531 8.97499 1.84196 8 1.84484ZM8 13.1549C9.5913 13.1549 11.1174 12.5591 12.2426 11.4986C13.3679 10.4381 14 8.99969 14 7.49988C14 5.83871 13.25 4.34719 12.0275 3.30808L5.2025 12.5046C6.035 12.9216 6.9875 13.1549 8 13.1549Z" fill="white"/>
</svg>
