<svg width="92" height="35" viewBox="0 0 92 35" fill="none" xmlns="http://www.w3.org/2000/svg">
<path d="M81.792 14.2742C80.4479 14.2742 79.1719 14.5398 78.0065 15.011C78.1171 14.6512 78.1936 14.2742 78.1936 13.88C78.1936 11.7638 76.4923 10.0502 74.3911 10.0502C73.9998 10.0502 73.634 10.1273 73.2767 10.2387C73.2767 10.1787 73.2852 10.1187 73.2852 10.0502C73.2852 6.59731 70.5036 3.80416 67.0839 3.80416C64.9232 3.80416 63.0177 4.91799 61.9033 6.61444C61.4609 4.9951 60.0063 3.80416 58.2539 3.80416C56.9609 3.80416 55.8295 4.45532 55.1404 5.4492C51.9845 2.09914 47.527 0 42.5846 0C33.4909 0 26.0475 7.05998 25.3415 16.0392C23.7082 14.9253 21.7431 14.2742 19.625 14.2742C14.3593 14.2742 10.0209 18.2925 9.46796 23.4504C8.51521 22.8592 7.40083 22.508 6.20139 22.508C2.77319 22.508 0 25.3097 0 28.754C0 32.1983 2.78169 35 6.20139 35H81.5368V34.8286C81.6218 34.8286 81.6984 34.8372 81.7834 34.8372C87.4234 34.8372 92 30.2277 92 24.5471C92 18.8666 87.4319 14.2742 81.792 14.2742Z" fill="#3E97FF"/>
</svg>
