<svg width="102" height="43" viewBox="0 0 102 43" fill="none" xmlns="http://www.w3.org/2000/svg">
<path d="M91.8508 22.4556C90.2759 22.4556 88.7885 22.8272 87.4586 23.4819C87.5723 22.9422 87.6336 22.3848 87.6336 21.8097C87.6336 17.3504 84.0638 13.7405 79.6541 13.7405C77.8518 13.7405 76.1894 14.351 74.8508 15.3774C72.2697 8.79465 65.9177 4.14074 58.4807 4.14074C55.0947 4.14074 51.9362 5.10514 49.2589 6.77737C48.3227 2.89321 44.8667 0 40.737 0C36.3011 0 32.6526 3.32675 32.0576 7.64444C31.069 7.44095 30.0453 7.33477 28.9954 7.33477C20.4385 7.33477 13.5003 14.351 13.5003 23.0041C13.5003 23.7562 13.5703 24.4905 13.6752 25.216C13.1853 24.9595 12.6428 24.8002 12.0479 24.8002C10.0968 24.8002 8.51312 26.3928 8.48688 28.357C8.09315 28.2951 7.69943 28.2508 7.28821 28.2508C3.26351 28.2508 0 31.551 0 35.621C0 39.6909 3.26351 42.9912 7.28821 42.9912H91.842C97.4503 42.9912 102 38.3903 102 32.7189C102.009 27.0564 97.4591 22.4556 91.8508 22.4556Z" fill="#3E97FF"/>
</svg>
