<svg width="211" height="74" viewBox="0 0 211 74" fill="none" xmlns="http://www.w3.org/2000/svg">
<path d="M200.099 51.348C198.091 51.348 196.219 51.9077 194.603 52.8458C194.633 52.3465 194.679 51.8472 194.679 51.348C194.679 39.4717 185.061 29.8345 173.209 29.8345C167.502 29.8345 162.338 32.0736 158.488 35.7197C157.204 29.8496 151.995 25.4471 145.76 25.4471C139.675 25.4471 134.572 29.6378 133.138 35.2809C129.348 31.9072 124.365 29.8345 118.9 29.8345C114.4 29.8345 110.218 31.2263 106.761 33.6016C106.127 26.9902 100.555 21.8161 93.7912 21.8161C89.0503 21.8161 84.9284 24.3578 82.6335 28.14C78.9042 12.0125 64.4852 0 47.2429 0C27.1771 0 10.901 16.3091 10.901 36.4307C10.901 41.968 12.1391 47.2177 14.3435 51.9077C13.2564 51.5447 12.1089 51.348 10.901 51.348C4.87678 51.348 0 56.2347 0 62.256C0 68.2774 4.87678 73.1792 10.901 73.1792H200.099C206.123 73.1792 211 68.2925 211 62.256C211 56.2195 206.108 51.348 200.099 51.348Z" fill="#3E97FF"/>
</svg>
